<?xml version="1.0" encoding="UTF-8"?>
<svg id="Layer_2" data-name="Layer 2" xmlns="http://www.w3.org/2000/svg" viewBox="0 0 588.79 147.16">
  <defs>
    <style>
      .cls-1 {
        fill: #f4364c;
      }
    </style>
  </defs>
  <g id="Layer_1-2" data-name="Layer 1">
    <path class="cls-1" d="M328.19,46.44c-4.61-1.7-10.01-2.55-16.22-2.55-6.69,0-12.41,1.38-17.16,4.15-4.75,2.76-8.19,6.62-10.33,11.56h-2.62c-1.84-5.62-5.12-9.65-9.82-12.07-4.7-2.42-10.54-3.64-17.53-3.64s-12.87,1.41-17.67,4.22c-4.8,2.81-8.17,6.64-10.11,11.49h-2.62v-14.25h-23.27v79.99h23.27v-45.52c0-5.04.48-8.75,1.45-11.13.97-2.38,2.71-3.97,5.24-4.8,2.52-.82,6.45-1.24,11.78-1.24s9.07.44,11.49,1.31c2.42.87,4.07,2.47,4.95,4.8.87,2.33,1.31,6.06,1.31,11.2v45.38h23.27v-45.09c0-5.24.48-9.07,1.45-11.49.97-2.42,2.69-4.05,5.16-4.87,2.47-.82,6.37-1.24,11.71-1.24s9.21.41,11.64,1.24c2.42.82,4.07,2.4,4.95,4.73.87,2.33,1.31,5.96,1.31,10.91v45.82h23.27v-53.96c0-6.69-1.33-12.09-4-16.22-2.67-4.12-6.3-7.03-10.91-8.73ZM52.94,44.04c-11.54,0-21.21,1.31-29.02,3.93-7.81,2.62-13.74,6.93-17.82,12.94-4.07,6.01-6.11,13.91-6.11,23.71s2.06,18.23,6.18,24.43c4.12,6.21,10.08,10.72,17.89,13.53,7.8,2.81,17.43,4.22,28.87,4.22,5.62,0,10.98-.39,16.07-1.16s9.67-1.84,13.74-3.2v-14.4h-29.53c-9.6,0-16.19-.44-19.78-1.31-3.59-.87-6.04-2.84-7.34-5.89-1.31-3.05-1.96-8.41-1.96-16.07s.65-12.39,1.96-15.34c1.31-2.96,3.73-4.82,7.27-5.6,3.54-.77,10.16-1.16,19.85-1.16h29.53v-14.25c-4.56-1.74-9.43-2.91-14.62-3.49-5.19-.58-10.25-.87-15.2-.87ZM166.17,47.96c-7.52-2.71-16.8-4.07-27.85-4.07s-20.34,1.36-27.85,4.07c-7.52,2.72-13.29,7.08-17.31,13.09-4.02,6.01-6.04,14.01-6.04,24s2.01,18.06,6.04,24.22c4.02,6.16,9.82,10.62,17.38,13.38,7.56,2.76,16.82,4.15,27.78,4.15s20.34-1.38,27.85-4.15c7.51-2.76,13.24-7.2,17.16-13.31,3.93-6.11,5.89-14.16,5.89-24.14s-1.96-18.13-5.89-24.14c-3.93-6.01-9.65-10.37-17.16-13.09ZM163.26,99.23c-1.31,3.15-3.83,5.41-7.56,6.76-3.73,1.36-9.58,2.04-17.53,2.04s-13.67-.68-17.45-2.04c-3.78-1.36-6.3-3.64-7.56-6.84-1.26-3.2-1.89-7.8-1.89-13.82,0-6.4.63-11.13,1.89-14.18,1.26-3.05,3.78-5.24,7.56-6.55,3.78-1.31,9.6-1.96,17.45-1.96s13.79.65,17.53,1.96c3.73,1.31,6.25,3.49,7.56,6.55,1.31,3.05,1.96,7.73,1.96,14.04s-.65,10.89-1.96,14.04ZM583.06,35.73c-9.71,6.78-25.81,10.88-43.67,11.11v20.6c26.94-.38,49.4-10.22,49.4-21.82,0-4.18-2.93-7.59-5.73-9.89ZM440.47,47.24c-6.16-2.23-13.6-3.35-22.33-3.35-9.21,0-16.56,1.31-22.03,3.93-5.48,2.62-9.24,6.3-11.27,11.05h-2.76v-13.53h-22.83v101.81h23.27v-35.05h2.62c2.23,4.65,5.99,8.27,11.27,10.84,5.28,2.57,12.63,3.85,22.03,3.85,8.73,0,16.12-1.12,22.18-3.35,6.06-2.23,10.84-6.37,14.33-12.44,3.49-6.06,5.24-14.57,5.24-25.53s-1.75-19.51-5.24-25.67c-3.49-6.16-8.32-10.35-14.47-12.58ZM434.37,99.74c-1.21,3.1-3.69,5.33-7.42,6.69-3.73,1.36-9.58,2.04-17.53,2.04s-13.79-.68-17.53-2.04c-3.73-1.36-6.23-3.59-7.49-6.69-1.26-3.1-1.89-7.8-1.89-14.11s.63-11,1.89-14.11c1.26-3.1,3.76-5.28,7.49-6.55,3.73-1.26,9.57-1.89,17.53-1.89s13.79.63,17.53,1.89c3.73,1.26,6.2,3.47,7.42,6.62,1.21,3.15,1.82,7.83,1.82,14.04s-.61,11.01-1.82,14.11ZM583.06,31.7c2.8-2.3,5.73-5.71,5.73-9.89,0-11.6-22.46-21.43-49.4-21.81v20.59c17.86.23,33.97,4.33,43.67,11.11ZM492.48,59.17c-2.8,2.3-5.73,5.71-5.73,9.88,0,11.6,22.46,21.44,49.4,21.82v-20.6c-17.87-.23-33.97-4.33-43.67-11.1ZM492.48,55.14c9.69-6.78,25.8-10.88,43.67-11.11v-20.6c-13.23.18-25.59,2.55-34.94,6.71-9.19,4.09-14.46,9.6-14.46,15.1,0,4.17,2.93,7.58,5.73,9.89Z"/>
  </g>
</svg>